<svg xmlns="http://www.w3.org/2000/svg" width="68.458" height="59.987" viewBox="0 0 68.458 59.987"><path d="M1197.435,2367.291l-15.417-7.252-.008-.006-7.229-3.4h0l-11.423-5.374a1.4,1.4,0,0,0-1.863.672l-7.08,15.051a1.4,1.4,0,0,0,.671,1.865l17.685,8.315a18.171,18.171,0,0,0,16.922,24.728h.006a18.163,18.163,0,0,0,7.74-34.6Zm-22.579-7.526,4.7,2.208-2.654,5.646-4.695-2.209Zm28.75,30.5A15.363,15.363,0,1,1,1175.8,2377.2a1.491,1.491,0,0,0,.085-.174,1.4,1.4,0,0,0-.692-1.814l-17.651-8.3,5.889-12.517,3.321,1.562-4.028,8.564a1.4,1.4,0,0,0,.671,1.864,1.383,1.383,0,0,0,.594.133,1.4,1.4,0,0,0,1.268-.8l4.029-8.565,3.039,1.429-3.249,6.914a1.4,1.4,0,0,0,.671,1.864l7.227,3.4a1.4,1.4,0,0,0,1.862-.671l3.252-6.913,14.157,6.659a15.355,15.355,0,0,1,7.363,20.439Zm-10.414-13.8a7.969,7.969,0,0,0-3.422-.769,8.051,8.051,0,0,0-7.291,4.631,7.936,7.936,0,0,0-.768,3.419,8.06,8.06,0,0,0,8.052,8.06h.007a8.058,8.058,0,0,0,7.286-4.623l-1.267-.6,1.267.593a8.054,8.054,0,0,0-3.864-10.713Zm1.33,9.525a5.256,5.256,0,0,1-10.011-2.244,5.165,5.165,0,0,1,.5-2.223,5.252,5.252,0,0,1,4.76-3.027,5.161,5.161,0,0,1,2.23.5,5.255,5.255,0,0,1,2.522,6.992Zm-41.549-29.626-7.846-3.689a1.4,1.4,0,1,0-1.193,2.535l7.846,3.689a1.386,1.386,0,0,0,.594.133,1.4,1.4,0,0,0,.6-2.668Zm1.7-6.294a1.4,1.4,0,1,0,2.278-1.627l-4.257-5.955a1.4,1.4,0,0,0-2.279,1.627Zm-6.653,14.151-7.3.515a1.4,1.4,0,0,0,.1,2.8l.1,0,7.306-.516a1.4,1.4,0,0,0-.2-2.794Z" transform="translate(-1139.412 -2341.904)" fill="#fff"/></svg>