<?xml version="1.0" encoding="utf-8"?>
<!-- Generator: Adobe Illustrator 25.0.1, SVG Export Plug-In . SVG Version: 6.00 Build 0)  -->
<svg version="1.1" id="레이어_1" xmlns="http://www.w3.org/2000/svg" xmlns:xlink="http://www.w3.org/1999/xlink" x="0px"
	 y="0px" viewBox="0 0 57 54" style="enable-background:new 0 0 57 54;" xml:space="preserve">
<style type="text/css">
	.st0{clip-path:url(#SVGID_2_);}
	.st1{fill:#FFFFFF;}
</style>
<g>
	<defs>
		<rect id="SVGID_1_" width="57" height="53.5"/>
	</defs>
	<clipPath id="SVGID_2_">
		<use xlink:href="#SVGID_1_"  style="overflow:visible;"/>
	</clipPath>
	<g class="st0">
		<path class="st1" d="M17.9,19.3c4.7,0,8.6-3.9,8.6-8.6s-3.9-8.6-8.6-8.6S9.3,6,9.3,10.7S13.2,19.3,17.9,19.3z M17.9,5.2
			c3.1,0,5.6,2.5,5.6,5.6s-2.5,5.6-5.6,5.6s-5.6-2.5-5.6-5.6S14.9,5.2,17.9,5.2z M28.4,21.7h-21c-3.9,0-7.1,3.2-7.1,7.1v22.9
			c0,0.8,0.7,1.5,1.5,1.5s1.5-0.7,1.5-1.5V28.8c0-2.3,1.9-4.1,4.1-4.1h5.1l1.8,5.2L12,42.2l6.2,5.8l6.1-5.7l-1.7-12.4l1.3-5.2h4.6
			c2.3,0,4.1,1.9,4.1,4.1v17.1c0,0.8,0.7,1.5,1.5,1.5s1.5-0.7,1.5-1.5V28.8C35.6,24.9,32.4,21.7,28.4,21.7z M20.7,24.7l-0.9,3.4
			h-3.1l-1.2-3.4H20.7z M18.1,43.9l-2.9-2.7l1.8-9.8h2.7l1.4,9.7L18.1,43.9z M41.2,14.1c3.8,0,6.9-3.1,6.9-6.9S45,0.3,41.2,0.3
			c-3.8,0-6.9,3.1-6.9,6.9S37.4,14.1,41.2,14.1z M41.2,3.3c2.2,0,3.9,1.8,3.9,3.9s-1.8,3.9-3.9,3.9c-2.1,0-3.9-1.8-3.9-3.9
			S39.1,3.3,41.2,3.3z M49,17H35.8c-0.8,0-1.5,0.7-1.5,1.5S35,20,35.8,20H49c2.6,0,4.7,2.1,4.7,4.7v17.6c0,0.8,0.7,1.5,1.5,1.5
			s1.5-0.7,1.5-1.5V24.7C56.7,20.4,53.3,17,49,17z M47.5,24.7h-2.3c-1,0-1.8,0.8-1.8,1.8v2.3c0,1,0.8,1.8,1.8,1.8h2.3
			c1,0,1.8-0.8,1.8-1.8v-2.3C49.3,25.5,48.5,24.7,47.5,24.7z"/>
	</g>
</g>
</svg>
