<svg xmlns="http://www.w3.org/2000/svg" width="61" height="59" viewBox="0 0 61 59"><g transform="translate(-1018.43 -2126.826)"><path d="M1079.421,2133.977a3.259,3.259,0,0,0-1.12-2.238l-4.753-4.117a3.254,3.254,0,0,0-4.6.339l-7.186,8.357c-.029,0-.056-.008-.086-.008h-38.29a4.972,4.972,0,0,0-4.959,4.977v39.563a4.972,4.972,0,0,0,4.958,4.977h38.291a4.972,4.972,0,0,0,4.958-4.977v-30.534l12-13.96A3.262,3.262,0,0,0,1079.421,2133.977Zm-17.743,49.133h-38.291a2.258,2.258,0,0,1-2.251-2.26v-39.563a2.259,2.259,0,0,1,2.252-2.26h36.048l-11.5,13.372h-18.032a1.359,1.359,0,0,0,0,2.717h15.7l-4.973,5.784h-10.723a1.358,1.358,0,0,0,0,2.717h8.623l-2.66,10.8a1.363,1.363,0,0,0,.429,1.355,1.353,1.353,0,0,0,1.4.228l10.314-4.245a.132.132,0,0,1,.016-.009,1.363,1.363,0,0,0,.281-.161c.017-.012.028-.028.044-.041a1.37,1.37,0,0,0,.17-.159l.288-.335,0,0,15.115-17.581v27.386A2.258,2.258,0,0,1,1061.679,2183.11Zm10.1-53.431,4.754,4.118a.56.56,0,0,1,.057.782l-4.213,4.9-5.59-4.844,4.214-4.9a.551.551,0,0,1,.778-.055Zm-24.42,38.9-5.59-4.846,23.249-27.04,5.59,4.844Zm-6.714-2.23,4.3,3.728-5.808,2.391Z" fill="#fff"/></g></svg>