<svg xmlns="http://www.w3.org/2000/svg" width="55" height="61" viewBox="0 0 55 61"><g transform="translate(-1212.871 -2127.9)"><path d="M1246.189,2179.9a6.133,6.133,0,0,1,.487,2.4,6.2,6.2,0,0,1-.056.786,23.8,23.8,0,0,0,16.1-14.61,5.034,5.034,0,0,1-2.95-1.22A20.6,20.6,0,0,1,1246.189,2179.9Z" transform="translate(-0.286 0.438)" fill="#fff"/><path d="M1262.906,2144.715a23.507,23.507,0,0,0-45.069,0c.04,0,.078-.012.117-.012a4.989,4.989,0,0,1,2.9.935,20.359,20.359,0,0,1,39.034,0,4.99,4.99,0,0,1,2.9-.934C1262.83,2144.7,1262.867,2144.713,1262.906,2144.715Z" fill="#fff"/><path d="M1246.189,2179.9a6,6,0,1,0,.487,2.4A6.169,6.169,0,0,0,1246.189,2179.9Z" transform="translate(-0.143 0.438)" fill="#fff"/><path d="M1217.837,2144.715a5.082,5.082,0,0,0-4.966,5.07v13.642a5.083,5.083,0,1,0,10.166,0v-13.642a5.108,5.108,0,0,0-5.082-5.082C1217.915,2144.7,1217.877,2144.714,1217.837,2144.715Z" transform="translate(0 0.2)" fill="#fff"/><path d="M1263.192,2144.715c-.039,0-.076-.012-.116-.012a5.111,5.111,0,0,0-5.084,5.082v13.642a5.1,5.1,0,0,0,4.725,5.047c.121.008.236.036.359.036a5.087,5.087,0,0,0,5.081-5.083v-13.642A5.079,5.079,0,0,0,1263.192,2144.715Z" transform="translate(-0.286 0.2)" fill="#fff"/><path d="M1237.647,2153.795a2.362,2.362,0,1,0-2.362,2.361A2.362,2.362,0,0,0,1237.647,2153.795Z" transform="translate(-0.113 0.185)" fill="#fff"/><path d="M1248.106,2153.795a2.361,2.361,0,1,0-2.36,2.361A2.361,2.361,0,0,0,1248.106,2153.795Z" transform="translate(-0.173 0.185)" fill="#fff"/><path d="M1250.465,2160.652a1.586,1.586,0,0,0-2.242-2.244,10.913,10.913,0,0,1-15.416,0,1.586,1.586,0,0,0-2.242,2.244,14.087,14.087,0,0,0,19.9,0Z" transform="translate(-0.143 0.245)" fill="#fff"/></g></svg>