<svg xmlns="http://www.w3.org/2000/svg" width="56" height="54" viewBox="0 0 56 54"><g transform="translate(-1538.958 -2134.642)"><path d="M1564.751,2153.048h-18.174a.2.2,0,0,0-.2.2v1.947a.2.2,0,0,0,.2.2h18.174a.2.2,0,0,0,.142-.059.2.2,0,0,0,.059-.145v-1.947a.2.2,0,0,0-.057-.145A.208.208,0,0,0,1564.751,2153.048Z" transform="translate(0.111)" fill="#fff"/><path d="M1564.751,2158.348h-18.174a.218.218,0,0,0-.143.058.211.211,0,0,0-.06.146v1.949a.2.2,0,0,0,.06.143.2.2,0,0,0,.143.059h18.174a.2.2,0,0,0,.142-.059.2.2,0,0,0,.059-.143v-1.949a.2.2,0,0,0-.2-.2Z" transform="translate(0.111)" fill="#fff"/><path d="M1546.578,2150.617h11.861a.2.2,0,0,0,.2-.2v-1.95a.2.2,0,0,0-.2-.2h-11.861a.2.2,0,0,0-.2.2v1.95a.207.207,0,0,0,.059.143A.2.2,0,0,0,1546.578,2150.617Z" transform="translate(0.111)" fill="#fff"/><path d="M1576.7,2167.533a7.912,7.912,0,1,0,7.863,7.913A7.9,7.9,0,0,0,1576.7,2167.533Zm4.026,9.213a1.272,1.272,0,0,1-1.27-1.277,2.793,2.793,0,0,0-2.78-2.8v0a1.277,1.277,0,0,1,0-2.554,5.336,5.336,0,0,1,5.32,5.348A1.276,1.276,0,0,1,1580.725,2176.746Z" transform="translate(0.446)" fill="#fff"/><path d="M1592.653,2163.177h-6.221a1.435,1.435,0,0,0-.192-.65l-1.842-3.333a3.362,3.362,0,0,0-2.659-1.574h-1.169v-12.147l-10.141-10.831h-28.6a2.855,2.855,0,0,0-2.87,2.831v43.588a2.855,2.855,0,0,0,2.87,2.83h17.5v2.438a2.307,2.307,0,0,0,2.3,2.313h31.017a2.309,2.309,0,0,0,2.3-2.313v-20.838A2.309,2.309,0,0,0,1592.653,2163.177Zm-21.6-24.136,5.929,6.332h-5.929Zm-29.222,42.289a.306.306,0,0,1-.324-.269v-43.588a.306.306,0,0,1,.324-.27h26.881v9.348a1.176,1.176,0,0,0,1.171,1.18h8.142v9.889h-5.471a3.362,3.362,0,0,0-2.658,1.574l-1.843,3.333a1.493,1.493,0,0,0-.193.65h-6.22a2.308,2.308,0,0,0-2.3,2.314v15.839Zm35.316,4.58a10.465,10.465,0,1,1,10.4-10.464A10.431,10.431,0,0,1,1577.144,2185.91Z" fill="#fff"/></g></svg>