<svg xmlns="http://www.w3.org/2000/svg" width="57" height="50" viewBox="0 0 57 50"><g transform="translate(-620.226 -2389.884)"><path d="M673.195,2389.884H624.258a4.033,4.033,0,0,0-4.032,4.023v34.26a4.033,4.033,0,0,0,4.032,4.024h23.185v5.133H636.829a1.28,1.28,0,1,0,0,2.56h23.794a1.28,1.28,0,1,0,0-2.56H650.009v-5.133h23.186a4.032,4.032,0,0,0,4.031-4.024v-34.26A4.032,4.032,0,0,0,673.195,2389.884Zm1.466,38.283a1.466,1.466,0,0,1-1.466,1.463H624.258a1.466,1.466,0,0,1-1.466-1.463V2424.6h51.869Zm0-6.125H622.792v-28.135a1.466,1.466,0,0,1,1.466-1.463h48.937a1.466,1.466,0,0,1,1.466,1.463Zm-20.914-11.272a8.058,8.058,0,0,0,1.558-4.761,8.165,8.165,0,1,0-3.373,6.571l5.432,5.421a1.281,1.281,0,0,0,1.814-1.81Zm-1.847-1.842a5.6,5.6,0,0,1-1.814,1.81,5.587,5.587,0,1,1,1.814-1.81Z" fill="#fff"/></g></svg>