<svg id="scrolled_search_icon" xmlns="http://www.w3.org/2000/svg" width="23" height="23" viewBox="0 0 23 23">
  <defs>
    <style>
      .cls-1 {
        fill: #2a324b;
      }
    </style>
  </defs>
  <path id="path2" class="cls-1" d="M558.058,421.492a10.436,10.436,0,0,1,10.436-10.435h0v2.981a7.464,7.464,0,0,0-7.455,7.454h0a7.463,7.463,0,0,0,7.455,7.454h0a7.464,7.464,0,0,0,7.454-7.454h0a7.465,7.465,0,0,0-7.454-7.454h0v-2.981a10.435,10.435,0,0,1,10.436,10.435h0a10.434,10.434,0,0,1-10.436,10.435h0a10.432,10.432,0,0,1-10.436-10.435Z" transform="translate(-558.058 -411.057)"/>
  <path id="path1" class="cls-1" d="M577.63,432.638,573,428.006A1.422,1.422,0,0,1,573,426h0a1.42,1.42,0,0,1,2.009,0h0l4.629,4.629a1.426,1.426,0,0,1,0,2.009h0a1.422,1.422,0,0,1-1,.415h0a1.417,1.417,0,0,1-1-.415Z" transform="translate(-557.052 -410.053)"/>
</svg>
